<?xml version="1.0" encoding="utf-8"?>
<!-- Generator: Adobe Illustrator 26.0.0, SVG Export Plug-In . SVG Version: 6.00 Build 0)  -->
<svg version="1.1" id="Capa_1" xmlns="http://www.w3.org/2000/svg" xmlns:xlink="http://www.w3.org/1999/xlink" x="0px" y="0px"
	 viewBox="0 0 155 39" style="enable-background:new 0 0 155 39;" xml:space="preserve">
<style type="text/css">
	.st0{opacity:0.5;}
	.st1{fill:#B3B3B3;}
	.st2{fill:#FFCB38;}
	.st3{fill:#FFFFFF;}
</style>
<g class="st0">
	<path class="st1" d="M32.63,29.89c-0.16-0.07-0.29-0.18-0.38-0.31c-0.09-0.13-0.14-0.28-0.14-0.45h0.44
		c0.02,0.15,0.08,0.27,0.18,0.37c0.11,0.1,0.26,0.15,0.47,0.15c0.19,0,0.35-0.05,0.46-0.15c0.11-0.1,0.17-0.22,0.17-0.38
		c0-0.12-0.03-0.22-0.1-0.29c-0.07-0.07-0.15-0.13-0.25-0.17c-0.1-0.04-0.23-0.08-0.4-0.13c-0.21-0.05-0.37-0.11-0.5-0.16
		c-0.12-0.05-0.23-0.14-0.32-0.25c-0.09-0.11-0.13-0.27-0.13-0.46c0-0.17,0.04-0.32,0.13-0.45c0.09-0.13,0.21-0.23,0.37-0.31
		c0.16-0.07,0.34-0.11,0.54-0.11c0.29,0,0.53,0.07,0.72,0.22c0.19,0.15,0.29,0.34,0.32,0.58h-0.45c-0.01-0.12-0.08-0.23-0.19-0.32
		c-0.11-0.09-0.26-0.14-0.44-0.14c-0.17,0-0.31,0.04-0.42,0.13c-0.11,0.09-0.16,0.21-0.16,0.37c0,0.11,0.03,0.21,0.1,0.28
		c0.06,0.07,0.14,0.13,0.24,0.16c0.09,0.04,0.23,0.08,0.4,0.13c0.21,0.06,0.37,0.11,0.5,0.17c0.13,0.06,0.23,0.14,0.32,0.26
		c0.09,0.12,0.13,0.27,0.13,0.47c0,0.15-0.04,0.3-0.12,0.43c-0.08,0.13-0.2,0.24-0.36,0.33S33.4,30,33.18,30
		C32.98,30,32.79,29.96,32.63,29.89z"/>
	<path class="st1" d="M37.61,29.8c-0.24-0.14-0.43-0.33-0.57-0.57c-0.14-0.24-0.21-0.52-0.21-0.82s0.07-0.58,0.21-0.83
		s0.33-0.43,0.57-0.57c0.24-0.14,0.5-0.2,0.8-0.2c0.29,0,0.56,0.07,0.8,0.2c0.24,0.14,0.43,0.33,0.57,0.57
		c0.14,0.24,0.21,0.52,0.21,0.83c0,0.31-0.07,0.58-0.21,0.83c-0.14,0.24-0.33,0.43-0.57,0.57c-0.24,0.14-0.51,0.2-0.8,0.2
		C38.11,30,37.85,29.93,37.61,29.8z M39,29.49c0.18-0.1,0.31-0.25,0.41-0.44c0.1-0.19,0.15-0.41,0.15-0.66
		c0-0.25-0.05-0.47-0.15-0.66c-0.1-0.19-0.24-0.33-0.41-0.43c-0.17-0.1-0.37-0.15-0.59-0.15s-0.42,0.05-0.59,0.15
		c-0.17,0.1-0.31,0.25-0.41,0.43c-0.1,0.19-0.15,0.41-0.15,0.66c0,0.25,0.05,0.47,0.15,0.66c0.1,0.19,0.24,0.33,0.41,0.44
		c0.18,0.1,0.37,0.15,0.59,0.15C38.62,29.64,38.82,29.59,39,29.49z"/>
	<path class="st1" d="M43.08,29.64h1.1v0.33h-1.51v-3.13h0.41V29.64z"/>
	<path class="st1" d="M47.18,26.84v1.98c0,0.28,0.07,0.49,0.2,0.62c0.14,0.14,0.33,0.2,0.57,0.2c0.24,0,0.43-0.07,0.56-0.2
		c0.14-0.14,0.2-0.34,0.2-0.62v-1.98h0.41v1.98c0,0.26-0.05,0.48-0.16,0.66c-0.1,0.18-0.25,0.31-0.42,0.4
		c-0.18,0.09-0.38,0.13-0.6,0.13s-0.42-0.04-0.6-0.13c-0.18-0.09-0.32-0.22-0.42-0.4c-0.1-0.18-0.16-0.4-0.16-0.66v-1.98H47.18z"/>
	<path class="st1" d="M52.02,27.57c0.14-0.24,0.33-0.43,0.56-0.57c0.24-0.14,0.5-0.21,0.79-0.21c0.34,0,0.64,0.08,0.89,0.25
		c0.25,0.16,0.44,0.4,0.56,0.7h-0.49c-0.09-0.19-0.21-0.33-0.38-0.44c-0.16-0.1-0.36-0.15-0.59-0.15c-0.22,0-0.42,0.05-0.59,0.15
		c-0.17,0.1-0.31,0.25-0.41,0.43c-0.1,0.19-0.15,0.41-0.15,0.66c0,0.25,0.05,0.47,0.15,0.65c0.1,0.19,0.24,0.33,0.41,0.43
		c0.17,0.1,0.37,0.15,0.59,0.15c0.23,0,0.42-0.05,0.59-0.15c0.16-0.1,0.29-0.25,0.38-0.43h0.49c-0.12,0.3-0.3,0.53-0.56,0.69
		C54.02,29.91,53.72,30,53.38,30c-0.29,0-0.56-0.07-0.79-0.2c-0.24-0.14-0.43-0.33-0.56-0.57c-0.14-0.24-0.21-0.52-0.21-0.82
		S51.88,27.82,52.02,27.57z"/>
	<path class="st1" d="M58,26.84v3.13H57.6v-3.13H58z"/>
	<path class="st1" d="M61.48,29.8c-0.24-0.14-0.43-0.33-0.57-0.57c-0.14-0.24-0.21-0.52-0.21-0.82s0.07-0.58,0.21-0.83
		c0.14-0.24,0.33-0.43,0.57-0.57c0.24-0.14,0.5-0.2,0.8-0.2c0.29,0,0.56,0.07,0.8,0.2c0.24,0.14,0.43,0.33,0.57,0.57
		c0.14,0.24,0.21,0.52,0.21,0.83c0,0.31-0.07,0.58-0.21,0.83c-0.14,0.24-0.33,0.43-0.57,0.57c-0.24,0.14-0.51,0.2-0.8,0.2
		C61.99,30,61.72,29.93,61.48,29.8z M62.87,29.49c0.18-0.1,0.31-0.25,0.41-0.44c0.1-0.19,0.15-0.41,0.15-0.66
		c0-0.25-0.05-0.47-0.15-0.66c-0.1-0.19-0.24-0.33-0.41-0.43c-0.17-0.1-0.37-0.15-0.59-0.15s-0.42,0.05-0.59,0.15
		c-0.17,0.1-0.31,0.25-0.41,0.43c-0.1,0.19-0.15,0.41-0.15,0.66c0,0.25,0.05,0.47,0.15,0.66c0.1,0.19,0.24,0.33,0.41,0.44
		c0.18,0.1,0.37,0.15,0.59,0.15C62.5,29.64,62.69,29.59,62.87,29.49z"/>
	<path class="st1" d="M69.01,29.97H68.6l-1.65-2.49v2.49h-0.41v-3.14h0.41l1.65,2.49v-2.49h0.41V29.97z"/>
	<path class="st1" d="M72.28,27.17v1.05h1.14v0.34h-1.14v1.08h1.28v0.34h-1.69v-3.14h1.69v0.34H72.28z"/>
	<path class="st1" d="M76.77,29.89c-0.16-0.07-0.29-0.18-0.38-0.31c-0.09-0.13-0.14-0.28-0.14-0.45h0.44
		c0.02,0.15,0.08,0.27,0.18,0.37c0.11,0.1,0.26,0.15,0.47,0.15c0.19,0,0.35-0.05,0.46-0.15c0.11-0.1,0.17-0.22,0.17-0.38
		c0-0.12-0.03-0.22-0.1-0.29c-0.07-0.07-0.15-0.13-0.25-0.17s-0.23-0.08-0.4-0.13c-0.21-0.05-0.37-0.11-0.5-0.16
		c-0.12-0.05-0.23-0.14-0.32-0.25c-0.09-0.11-0.13-0.27-0.13-0.46c0-0.17,0.04-0.32,0.13-0.45c0.09-0.13,0.21-0.23,0.37-0.31
		c0.16-0.07,0.34-0.11,0.54-0.11c0.29,0,0.53,0.07,0.72,0.22c0.19,0.15,0.29,0.34,0.32,0.58h-0.45c-0.01-0.12-0.08-0.23-0.19-0.32
		c-0.11-0.09-0.26-0.14-0.44-0.14c-0.17,0-0.31,0.04-0.42,0.13c-0.11,0.09-0.16,0.21-0.16,0.37c0,0.11,0.03,0.21,0.1,0.28
		c0.06,0.07,0.14,0.13,0.24,0.16c0.09,0.04,0.23,0.08,0.4,0.13c0.21,0.06,0.37,0.11,0.5,0.17c0.13,0.06,0.23,0.14,0.32,0.26
		c0.09,0.12,0.13,0.27,0.13,0.47c0,0.15-0.04,0.3-0.12,0.43c-0.08,0.13-0.2,0.24-0.36,0.33C77.73,29.96,77.54,30,77.32,30
		C77.12,30,76.93,29.96,76.77,29.89z"/>
	<path class="st1" d="M86.86,27.74c-0.09-0.18-0.21-0.32-0.38-0.43c-0.16-0.1-0.36-0.15-0.58-0.15c-0.22,0-0.42,0.05-0.59,0.15
		c-0.18,0.1-0.31,0.24-0.41,0.43c-0.1,0.19-0.15,0.4-0.15,0.65c0,0.25,0.05,0.46,0.15,0.65c0.1,0.19,0.24,0.33,0.41,0.43
		c0.18,0.1,0.37,0.15,0.59,0.15c0.31,0,0.56-0.09,0.76-0.27c0.2-0.18,0.31-0.43,0.35-0.74h-1.25v-0.33h1.69v0.31
		c-0.02,0.26-0.11,0.49-0.24,0.71c-0.14,0.21-0.32,0.38-0.54,0.51C86.43,29.93,86.18,30,85.9,30c-0.29,0-0.56-0.07-0.8-0.2
		c-0.24-0.14-0.43-0.33-0.57-0.57c-0.14-0.24-0.21-0.52-0.21-0.82s0.07-0.58,0.21-0.83c0.14-0.24,0.33-0.43,0.57-0.57
		c0.24-0.14,0.51-0.2,0.8-0.2c0.33,0,0.63,0.08,0.88,0.25c0.26,0.16,0.44,0.4,0.56,0.7H86.86z"/>
	<path class="st1" d="M90.55,29.64h1.1v0.33h-1.51v-3.13h0.41V29.64z"/>
	<path class="st1" d="M94.86,29.8c-0.24-0.14-0.43-0.33-0.57-0.57c-0.14-0.24-0.21-0.52-0.21-0.82s0.07-0.58,0.21-0.83
		c0.14-0.24,0.33-0.43,0.57-0.57c0.24-0.14,0.51-0.2,0.8-0.2c0.29,0,0.56,0.07,0.8,0.2c0.24,0.14,0.43,0.33,0.57,0.57
		c0.14,0.24,0.21,0.52,0.21,0.83c0,0.31-0.07,0.58-0.21,0.83c-0.14,0.24-0.33,0.43-0.57,0.57c-0.24,0.14-0.51,0.2-0.8,0.2
		C95.37,30,95.1,29.93,94.86,29.8z M96.25,29.49c0.18-0.1,0.31-0.25,0.41-0.44c0.1-0.19,0.15-0.41,0.15-0.66
		c0-0.25-0.05-0.47-0.15-0.66c-0.1-0.19-0.24-0.33-0.41-0.43s-0.37-0.15-0.59-0.15c-0.22,0-0.42,0.05-0.59,0.15
		c-0.17,0.1-0.31,0.25-0.41,0.43c-0.1,0.19-0.15,0.41-0.15,0.66c0,0.25,0.05,0.47,0.15,0.66c0.1,0.19,0.24,0.33,0.41,0.44
		s0.37,0.15,0.59,0.15C95.88,29.64,96.07,29.59,96.25,29.49z"/>
	<path class="st1" d="M101.81,28.49c0.09,0.07,0.17,0.17,0.22,0.28c0.06,0.11,0.08,0.23,0.08,0.36c0,0.16-0.04,0.3-0.12,0.43
		c-0.08,0.13-0.2,0.23-0.35,0.3c-0.15,0.07-0.34,0.11-0.55,0.11h-1.17v-3.13h1.12c0.21,0,0.39,0.04,0.54,0.11
		c0.15,0.07,0.26,0.17,0.34,0.29c0.08,0.12,0.11,0.25,0.11,0.4c0,0.19-0.05,0.34-0.15,0.46c-0.1,0.12-0.23,0.21-0.4,0.26
		C101.61,28.37,101.72,28.42,101.81,28.49z M100.34,28.19h0.69c0.19,0,0.34-0.04,0.45-0.14c0.1-0.09,0.16-0.21,0.16-0.37
		c0-0.16-0.05-0.28-0.16-0.37c-0.11-0.09-0.26-0.14-0.45-0.14h-0.68V28.19z M101.54,29.49c0.11-0.1,0.17-0.23,0.17-0.4
		c0-0.17-0.06-0.31-0.18-0.41c-0.12-0.1-0.28-0.15-0.48-0.15h-0.71v1.11h0.72C101.27,29.63,101.42,29.58,101.54,29.49z"/>
	<path class="st1" d="M106.69,29.27h-1.37l-0.25,0.7h-0.43l1.13-3.11h0.47l1.13,3.11h-0.43L106.69,29.27z M106.58,28.94l-0.57-1.58
		l-0.57,1.58H106.58z"/>
	<path class="st1" d="M110.44,29.64h1.1v0.33h-1.51v-3.13h0.41V29.64z"/>
	<path class="st1" d="M114.54,27.17v1.05h1.14v0.34h-1.14v1.08h1.28v0.34h-1.69v-3.14h1.69v0.34H114.54z"/>
	<path class="st1" d="M119.03,29.89c-0.16-0.07-0.29-0.18-0.38-0.31c-0.09-0.13-0.14-0.28-0.14-0.45h0.44
		c0.01,0.15,0.08,0.27,0.18,0.37c0.11,0.1,0.26,0.15,0.46,0.15c0.19,0,0.35-0.05,0.46-0.15c0.11-0.1,0.17-0.22,0.17-0.38
		c0-0.12-0.03-0.22-0.1-0.29c-0.07-0.07-0.15-0.13-0.25-0.17s-0.23-0.08-0.4-0.13c-0.21-0.05-0.37-0.11-0.5-0.16
		c-0.12-0.05-0.23-0.14-0.32-0.25c-0.09-0.11-0.13-0.27-0.13-0.46c0-0.17,0.04-0.32,0.13-0.45c0.09-0.13,0.21-0.23,0.37-0.31
		c0.16-0.07,0.34-0.11,0.54-0.11c0.29,0,0.53,0.07,0.72,0.22c0.19,0.15,0.29,0.34,0.32,0.58h-0.45c-0.01-0.12-0.08-0.23-0.19-0.32
		c-0.11-0.09-0.26-0.14-0.44-0.14c-0.17,0-0.31,0.04-0.42,0.13c-0.11,0.09-0.16,0.21-0.16,0.37c0,0.11,0.03,0.21,0.1,0.28
		c0.06,0.07,0.14,0.13,0.24,0.16c0.09,0.04,0.23,0.08,0.4,0.13c0.21,0.06,0.37,0.11,0.5,0.17c0.13,0.06,0.23,0.14,0.32,0.26
		c0.09,0.12,0.13,0.27,0.13,0.47c0,0.15-0.04,0.3-0.12,0.43c-0.08,0.13-0.2,0.24-0.36,0.33c-0.16,0.08-0.35,0.13-0.56,0.13
		C119.38,30,119.19,29.96,119.03,29.89z"/>
</g>
<g>
	<path class="st2" d="M55.15,15.25c0,3.84-3.11,6.95-6.95,6.95h-9.41c-3.84,0-6.95-3.11-6.95-6.95s3.11-6.95,6.95-6.95h9.41
		C52.04,8.3,55.15,11.41,55.15,15.25z"/>
	<circle class="st3" cx="48.2" cy="15.25" r="6.13"/>
	<g>
		<path class="st3" d="M69.73,22.25h-3.4l-5.68-8.6v8.6h-3.4V8.31h3.4l5.68,8.64V8.31h3.4V22.25z"/>
		<path class="st3" d="M84.67,22.25h-3.4l-5.68-8.6v8.6h-3.4V8.31h3.4l5.68,8.64V8.31h3.4V22.25z"/>
		<path class="st3" d="M90.53,11.03v2.82h4.55v2.62h-4.55v3.06h5.14v2.72h-8.54V8.31h8.54v2.72H90.53z"/>
		<path class="st3" d="M98.2,11.58c0.6-1.08,1.43-1.92,2.49-2.52c1.07-0.6,2.27-0.9,3.63-0.9c1.66,0,3.07,0.44,4.25,1.31
			c1.18,0.87,1.97,2.07,2.36,3.57h-3.73c-0.28-0.58-0.67-1.03-1.18-1.33c-0.51-0.3-1.09-0.46-1.74-0.46c-1.05,0-1.89,0.36-2.54,1.09
			c-0.65,0.73-0.97,1.7-0.97,2.92s0.32,2.19,0.97,2.92c0.65,0.73,1.5,1.09,2.54,1.09c0.65,0,1.23-0.15,1.74-0.46
			c0.51-0.3,0.9-0.75,1.18-1.33h3.73c-0.4,1.51-1.19,2.7-2.36,3.57c-1.18,0.87-2.6,1.3-4.25,1.3c-1.35,0-2.56-0.3-3.63-0.9
			c-1.07-0.6-1.9-1.44-2.49-2.51s-0.89-2.3-0.89-3.67S97.6,12.66,98.2,11.58z"/>
		<path class="st3" d="M123.04,8.31v2.72h-3.69v11.22h-3.4V11.03h-3.69V8.31H123.04z"/>
	</g>
</g>
</svg>
