<?xml version="1.0" encoding="utf-8"?>
<!-- Generator: Adobe Illustrator 26.0.0, SVG Export Plug-In . SVG Version: 6.00 Build 0)  -->
<svg version="1.1" id="Capa_1" xmlns="http://www.w3.org/2000/svg" xmlns:xlink="http://www.w3.org/1999/xlink" x="0px" y="0px"
	 viewBox="0 0 190 46" style="enable-background:new 0 0 190 46;" xml:space="preserve">
<style type="text/css">
	.st0{fill:#FFCB38;}
	.st1{fill:#FFFFFF;}
	.st2{opacity:0.5;fill:#FFFFFF;}
	.st3{font-family:'Poppins-Regular';}
	.st4{font-size:9.3648px;}
	.st5{letter-spacing:4;}
</style>
<g>
	<path class="st0" d="M48.6,14.8c0,8-6.5,14.5-14.5,14.5H14.5C6.5,29.3,0,22.8,0,14.8S6.5,0.3,14.5,0.3h19.6
		C42.1,0.3,48.6,6.8,48.6,14.8z"/>
	<circle class="st1" cx="34.1" cy="14.8" r="12.8"/>
	<g>
		<path class="st1" d="M78.9,29.4h-7.1L60,11.5v17.9H53v-29H60l11.8,18v-18h7.1V29.4z"/>
		<path class="st1" d="M110.1,29.4H103L91.1,11.5v17.9h-7.1v-29h7.1l11.8,18v-18h7.1V29.4z"/>
		<path class="st1" d="M122.3,6v5.9h9.5v5.5h-9.5v6.4H133v5.7h-17.8v-29H133V6H122.3z"/>
		<path class="st1" d="M138.2,7.1c1.2-2.2,3-4,5.2-5.3c2.2-1.3,4.7-1.9,7.6-1.9c3.4,0,6.4,0.9,8.9,2.7c2.5,1.8,4.1,4.3,4.9,7.4H157
			c-0.6-1.2-1.4-2.1-2.5-2.8c-1.1-0.6-2.3-1-3.6-1c-2.2,0-3.9,0.8-5.3,2.3c-1.4,1.5-2,3.5-2,6.1s0.7,4.6,2,6.1
			c1.4,1.5,3.1,2.3,5.3,2.3c1.4,0,2.6-0.3,3.6-1c1.1-0.6,1.9-1.6,2.5-2.8h7.8c-0.8,3.1-2.5,5.6-4.9,7.4c-2.5,1.8-5.4,2.7-8.9,2.7
			c-2.8,0-5.3-0.6-7.6-1.9c-2.2-1.3-4-3-5.2-5.2s-1.9-4.8-1.9-7.7S137,9.4,138.2,7.1z"/>
		<path class="st1" d="M190,0.3V6h-7.7v23.4h-7.1V6h-7.7V0.3H190z"/>
	</g>
</g>
<text transform="matrix(1 0 0 1 2.2473 46.0002)" class="st2 st3 st4 st5">SOLUCIONES GLOBALES</text>
</svg>
