<?xml version="1.0" encoding="utf-8"?>
<!-- Generator: Adobe Illustrator 26.0.0, SVG Export Plug-In . SVG Version: 6.00 Build 0)  -->
<svg version="1.1" id="Capa_1" xmlns="http://www.w3.org/2000/svg" xmlns:xlink="http://www.w3.org/1999/xlink" x="0px" y="0px"
	 viewBox="0 0 155 39" style="enable-background:new 0 0 155 39;" xml:space="preserve">
<style type="text/css">
	.st0{opacity:0.5;}
	.st1{fill:#FFCB38;}
	.st2{fill:#FFFFFF;}
</style>
<g class="st0">
	<path d="M1.28,37.45c-0.28-0.12-0.5-0.3-0.65-0.52c-0.16-0.22-0.24-0.48-0.24-0.77h0.74c0.03,0.25,0.13,0.46,0.31,0.63
		c0.18,0.17,0.44,0.26,0.79,0.26c0.33,0,0.59-0.08,0.78-0.25c0.19-0.17,0.29-0.38,0.29-0.64c0-0.2-0.06-0.37-0.17-0.5
		c-0.11-0.13-0.25-0.22-0.42-0.29s-0.39-0.14-0.68-0.21c-0.35-0.09-0.63-0.18-0.84-0.28c-0.21-0.09-0.39-0.24-0.54-0.43
		c-0.15-0.2-0.23-0.46-0.23-0.79c0-0.29,0.07-0.55,0.22-0.77c0.15-0.22,0.36-0.4,0.62-0.52c0.27-0.12,0.57-0.18,0.92-0.18
		c0.5,0,0.91,0.12,1.23,0.37c0.32,0.25,0.5,0.58,0.54,0.99H3.17c-0.03-0.2-0.13-0.38-0.32-0.54s-0.44-0.23-0.75-0.23
		c-0.29,0-0.53,0.08-0.71,0.23c-0.18,0.15-0.28,0.36-0.28,0.63c0,0.19,0.05,0.35,0.16,0.47c0.11,0.12,0.24,0.22,0.4,0.28
		c0.16,0.06,0.39,0.14,0.68,0.22c0.35,0.1,0.63,0.19,0.85,0.29c0.21,0.09,0.4,0.24,0.55,0.44s0.23,0.46,0.23,0.8
		c0,0.26-0.07,0.5-0.21,0.73c-0.14,0.23-0.34,0.42-0.61,0.56s-0.59,0.21-0.95,0.21C1.87,37.64,1.55,37.58,1.28,37.45z"/>
	<path d="M9.75,37.29c-0.41-0.23-0.73-0.56-0.97-0.97s-0.35-0.88-0.35-1.4s0.12-0.99,0.35-1.4s0.56-0.74,0.97-0.97
		c0.41-0.23,0.86-0.35,1.35-0.35c0.5,0,0.95,0.12,1.36,0.35c0.41,0.23,0.73,0.55,0.96,0.97c0.23,0.41,0.35,0.88,0.35,1.41
		s-0.12,0.99-0.35,1.41c-0.23,0.41-0.56,0.74-0.96,0.97c-0.41,0.23-0.86,0.35-1.36,0.35C10.6,37.64,10.15,37.53,9.75,37.29z
		 M12.1,36.78c0.3-0.17,0.53-0.42,0.7-0.74c0.17-0.32,0.26-0.69,0.26-1.12c0-0.43-0.09-0.8-0.26-1.12c-0.17-0.32-0.4-0.56-0.7-0.74
		s-0.63-0.26-1.01-0.26s-0.71,0.09-1.01,0.26c-0.3,0.17-0.53,0.42-0.7,0.74c-0.17,0.32-0.26,0.69-0.26,1.12
		c0,0.42,0.08,0.79,0.26,1.12c0.17,0.32,0.4,0.57,0.7,0.74c0.3,0.17,0.63,0.26,1,0.26C11.47,37.04,11.8,36.95,12.1,36.78z"/>
	<path d="M19.05,37.02h1.86v0.57h-2.56v-5.33h0.7V37.02z"/>
	<path d="M26,32.26v3.37c0,0.47,0.12,0.83,0.35,1.05s0.55,0.34,0.97,0.34c0.41,0,0.73-0.11,0.96-0.34c0.23-0.23,0.35-0.58,0.35-1.05
		v-3.37h0.7v3.36c0,0.44-0.09,0.82-0.27,1.12c-0.18,0.3-0.42,0.53-0.72,0.68c-0.3,0.15-0.64,0.22-1.02,0.22s-0.72-0.07-1.02-0.22
		c-0.3-0.15-0.54-0.37-0.72-0.68c-0.18-0.3-0.26-0.68-0.26-1.12v-3.36H26z"/>
	<path d="M34.24,33.52c0.23-0.42,0.55-0.74,0.96-0.97s0.85-0.35,1.35-0.35c0.58,0,1.09,0.14,1.52,0.42s0.75,0.68,0.95,1.19h-0.83
		c-0.15-0.32-0.36-0.57-0.64-0.74c-0.28-0.17-0.61-0.26-1-0.26c-0.37,0-0.71,0.09-1,0.26s-0.53,0.42-0.7,0.74s-0.25,0.69-0.25,1.12
		c0,0.42,0.08,0.79,0.25,1.11s0.4,0.56,0.7,0.74s0.63,0.26,1,0.26c0.39,0,0.72-0.08,1-0.26c0.28-0.17,0.49-0.42,0.64-0.74h0.83
		c-0.2,0.51-0.51,0.9-0.95,1.18c-0.43,0.28-0.94,0.42-1.52,0.42c-0.49,0-0.94-0.12-1.35-0.35s-0.72-0.55-0.96-0.97
		c-0.23-0.41-0.35-0.88-0.35-1.4S34,33.93,34.24,33.52z"/>
	<path d="M44.41,32.26v5.33h-0.7v-5.33H44.41z"/>
	<path d="M50.32,37.29c-0.41-0.23-0.73-0.56-0.97-0.97S49,35.44,49,34.92s0.12-0.99,0.35-1.4s0.56-0.74,0.97-0.97
		c0.41-0.23,0.86-0.35,1.35-0.35c0.5,0,0.95,0.12,1.36,0.35c0.41,0.23,0.73,0.55,0.96,0.97c0.23,0.41,0.35,0.88,0.35,1.41
		s-0.12,0.99-0.35,1.41c-0.23,0.41-0.56,0.74-0.96,0.97c-0.41,0.23-0.86,0.35-1.36,0.35C51.18,37.64,50.73,37.53,50.32,37.29z
		 M52.68,36.78c0.3-0.17,0.53-0.42,0.7-0.74c0.17-0.32,0.26-0.69,0.26-1.12c0-0.43-0.09-0.8-0.26-1.12c-0.17-0.32-0.4-0.56-0.7-0.74
		s-0.63-0.26-1.01-0.26s-0.71,0.09-1.01,0.26c-0.3,0.17-0.53,0.42-0.7,0.74c-0.17,0.32-0.26,0.69-0.26,1.12
		c0,0.42,0.08,0.79,0.26,1.12c0.17,0.32,0.4,0.57,0.7,0.74c0.3,0.17,0.63,0.26,1,0.26C52.04,37.04,52.38,36.95,52.68,36.78z"/>
	<path d="M63.12,37.59h-0.7l-2.8-4.24v4.24h-0.7v-5.33h0.7l2.8,4.23v-4.23h0.7V37.59z"/>
	<path d="M68.66,32.83v1.78h1.94v0.57h-1.94v1.83h2.17v0.57h-2.86v-5.33h2.86v0.57H68.66z"/>
	<path d="M76.3,37.45c-0.28-0.12-0.5-0.3-0.65-0.52c-0.16-0.22-0.24-0.48-0.24-0.77h0.74c0.03,0.25,0.13,0.46,0.31,0.63
		c0.18,0.17,0.44,0.26,0.79,0.26c0.33,0,0.59-0.08,0.78-0.25c0.19-0.17,0.29-0.38,0.29-0.64c0-0.2-0.06-0.37-0.17-0.5
		c-0.11-0.13-0.25-0.22-0.42-0.29s-0.39-0.14-0.68-0.21c-0.35-0.09-0.63-0.18-0.84-0.28c-0.21-0.09-0.39-0.24-0.54-0.43
		c-0.15-0.2-0.23-0.46-0.23-0.79c0-0.29,0.07-0.55,0.22-0.77c0.15-0.22,0.36-0.4,0.62-0.52c0.27-0.12,0.57-0.18,0.92-0.18
		c0.5,0,0.91,0.12,1.23,0.37c0.32,0.25,0.5,0.58,0.54,0.99H78.2c-0.03-0.2-0.13-0.38-0.32-0.54s-0.44-0.23-0.75-0.23
		c-0.29,0-0.53,0.08-0.71,0.23c-0.18,0.15-0.28,0.36-0.28,0.63c0,0.19,0.05,0.35,0.16,0.47c0.11,0.12,0.24,0.22,0.4,0.28
		c0.16,0.06,0.39,0.14,0.68,0.22c0.35,0.1,0.63,0.19,0.85,0.29c0.21,0.09,0.4,0.24,0.55,0.44c0.15,0.2,0.23,0.46,0.23,0.8
		c0,0.26-0.07,0.5-0.21,0.73c-0.14,0.23-0.34,0.42-0.61,0.56c-0.27,0.14-0.59,0.21-0.95,0.21C76.89,37.64,76.58,37.58,76.3,37.45z"
		/>
	<path d="M93.44,33.81c-0.15-0.31-0.36-0.55-0.64-0.72c-0.28-0.17-0.61-0.26-0.98-0.26c-0.37,0-0.71,0.09-1,0.26
		c-0.3,0.17-0.53,0.42-0.7,0.73s-0.26,0.69-0.26,1.1c0,0.42,0.08,0.78,0.26,1.1c0.17,0.32,0.41,0.56,0.7,0.73
		c0.3,0.17,0.63,0.26,1,0.26c0.52,0,0.95-0.16,1.28-0.47s0.53-0.73,0.59-1.26h-2.12v-0.56h2.87v0.53c-0.04,0.44-0.18,0.84-0.41,1.2
		c-0.23,0.36-0.54,0.65-0.92,0.86c-0.38,0.21-0.81,0.32-1.28,0.32c-0.49,0-0.94-0.12-1.35-0.35c-0.41-0.23-0.73-0.55-0.97-0.97
		c-0.24-0.41-0.36-0.88-0.36-1.4s0.12-0.99,0.36-1.4c0.24-0.42,0.56-0.74,0.97-0.97c0.41-0.23,0.86-0.35,1.35-0.35
		c0.57,0,1.07,0.14,1.5,0.42s0.75,0.67,0.95,1.18H93.44z"/>
	<path d="M99.72,37.02h1.86v0.57h-2.56v-5.33h0.7V37.02z"/>
	<path d="M107.05,37.29c-0.41-0.23-0.73-0.56-0.97-0.97c-0.24-0.42-0.36-0.88-0.36-1.4s0.12-0.99,0.36-1.4
		c0.24-0.42,0.56-0.74,0.97-0.97c0.41-0.23,0.86-0.35,1.35-0.35c0.5,0,0.95,0.12,1.36,0.35c0.41,0.23,0.73,0.55,0.96,0.97
		c0.23,0.41,0.35,0.88,0.35,1.41s-0.12,0.99-0.35,1.41c-0.23,0.41-0.56,0.74-0.96,0.97s-0.86,0.35-1.36,0.35
		C107.91,37.64,107.46,37.53,107.05,37.29z M109.41,36.78c0.3-0.17,0.53-0.42,0.7-0.74c0.17-0.32,0.26-0.69,0.26-1.12
		c0-0.43-0.08-0.8-0.26-1.12s-0.4-0.56-0.7-0.74s-0.63-0.26-1.01-0.26s-0.71,0.09-1.01,0.26c-0.3,0.17-0.53,0.42-0.7,0.74
		s-0.26,0.69-0.26,1.12c0,0.42,0.08,0.79,0.26,1.12c0.17,0.32,0.41,0.57,0.7,0.74s0.63,0.26,1,0.26
		C108.77,37.04,109.11,36.95,109.41,36.78z"/>
	<path d="M118.86,35.08c0.16,0.13,0.29,0.29,0.38,0.47c0.09,0.19,0.14,0.39,0.14,0.6c0,0.27-0.07,0.51-0.21,0.73
		c-0.14,0.22-0.34,0.39-0.6,0.51c-0.26,0.12-0.57,0.19-0.93,0.19h-1.99v-5.33h1.91c0.36,0,0.67,0.06,0.92,0.18
		c0.25,0.12,0.45,0.28,0.57,0.49c0.13,0.2,0.19,0.43,0.19,0.69c0,0.32-0.08,0.58-0.26,0.78s-0.4,0.36-0.68,0.45
		C118.52,34.88,118.7,34.96,118.86,35.08z M116.35,34.56h1.17c0.33,0,0.58-0.08,0.76-0.23c0.18-0.15,0.27-0.36,0.27-0.63
		c0-0.27-0.09-0.48-0.27-0.63c-0.18-0.15-0.44-0.23-0.77-0.23h-1.15V34.56z M118.39,36.77c0.19-0.16,0.29-0.39,0.29-0.68
		c0-0.3-0.1-0.53-0.31-0.7c-0.2-0.17-0.48-0.26-0.82-0.26h-1.21v1.88h1.23C117.93,37.01,118.2,36.93,118.39,36.77z"/>
	<path d="M127.16,36.4h-2.32l-0.43,1.18h-0.73l1.93-5.29h0.8l1.92,5.29h-0.73L127.16,36.4z M126.96,35.84L126,33.15l-0.96,2.69
		H126.96z"/>
	<path d="M133.52,37.02h1.86v0.57h-2.56v-5.33h0.7V37.02z"/>
	<path d="M140.49,32.83v1.78h1.94v0.57h-1.94v1.83h2.17v0.57h-2.87v-5.33h2.87v0.57H140.49z"/>
	<path d="M148.12,37.45c-0.28-0.12-0.5-0.3-0.65-0.52c-0.16-0.22-0.24-0.48-0.24-0.77h0.74c0.03,0.25,0.13,0.46,0.31,0.63
		c0.18,0.17,0.44,0.26,0.79,0.26c0.33,0,0.59-0.08,0.78-0.25c0.19-0.17,0.29-0.38,0.29-0.64c0-0.2-0.06-0.37-0.17-0.5
		c-0.11-0.13-0.25-0.22-0.42-0.29s-0.39-0.14-0.68-0.21c-0.35-0.09-0.63-0.18-0.84-0.28c-0.21-0.09-0.39-0.24-0.54-0.43
		c-0.15-0.2-0.23-0.46-0.23-0.79c0-0.29,0.07-0.55,0.22-0.77c0.15-0.22,0.36-0.4,0.62-0.52c0.27-0.12,0.57-0.18,0.92-0.18
		c0.5,0,0.91,0.12,1.23,0.37c0.32,0.25,0.5,0.58,0.54,0.99h-0.76c-0.03-0.2-0.13-0.38-0.32-0.54c-0.19-0.16-0.44-0.23-0.75-0.23
		c-0.29,0-0.53,0.08-0.71,0.23c-0.18,0.15-0.27,0.36-0.27,0.63c0,0.19,0.05,0.35,0.16,0.47c0.11,0.12,0.24,0.22,0.41,0.28
		c0.16,0.06,0.39,0.14,0.68,0.22c0.35,0.1,0.63,0.19,0.85,0.29c0.21,0.09,0.4,0.24,0.55,0.44c0.15,0.2,0.23,0.46,0.23,0.8
		c0,0.26-0.07,0.5-0.21,0.73c-0.14,0.23-0.34,0.42-0.61,0.56c-0.27,0.14-0.59,0.21-0.96,0.21C148.72,37.64,148.4,37.58,148.12,37.45
		z"/>
</g>
<g>
	<path class="st1" d="M39.56,12.58c0,6.53-5.29,11.81-11.81,11.81H11.76c-6.53,0-11.81-5.29-11.81-11.81S5.23,0.76,11.76,0.76h15.98
		C34.27,0.76,39.56,6.05,39.56,12.58z"/>
	<circle class="st2" cx="27.74" cy="12.58" r="10.42"/>
	<g>
		<path class="st2" d="M64.34,24.48h-5.77L48.92,9.86v14.62h-5.77V0.78h5.77l9.65,14.68V0.78h5.77V24.48z"/>
		<path class="st2" d="M89.73,24.48h-5.77L74.3,9.86v14.62h-5.77V0.78h5.77l9.65,14.68V0.78h5.77V24.48z"/>
		<path class="st2" d="M99.69,5.41v4.79h7.73v4.46h-7.73v5.2h8.74v4.63H93.91V0.78h14.51v4.63H99.69z"/>
		<path class="st2" d="M112.71,6.33c1.01-1.83,2.42-3.26,4.24-4.29s3.87-1.54,6.16-1.54c2.81,0,5.22,0.74,7.22,2.23
			c2,1.49,3.34,3.51,4.02,6.08h-6.35c-0.47-0.99-1.14-1.74-2.01-2.26c-0.87-0.52-1.85-0.78-2.95-0.78c-1.78,0-3.22,0.62-4.32,1.86
			c-1.1,1.24-1.65,2.89-1.65,4.96s0.55,3.73,1.65,4.96c1.1,1.24,2.54,1.86,4.32,1.86c1.1,0,2.09-0.26,2.95-0.78
			c0.87-0.52,1.54-1.27,2.01-2.26h6.35c-0.67,2.56-2.01,4.59-4.02,6.06c-2,1.47-4.41,2.21-7.22,2.21c-2.3,0-4.35-0.51-6.16-1.53
			c-1.81-1.03-3.22-2.45-4.24-4.27s-1.52-3.9-1.52-6.25S111.7,8.17,112.71,6.33z"/>
		<path class="st2" d="M154.94,0.78v4.63h-6.28v19.07h-5.77V5.41h-6.28V0.78H154.94z"/>
	</g>
</g>
</svg>
