<?xml version="1.0" encoding="utf-8"?>
<!-- Generator: Adobe Illustrator 26.0.0, SVG Export Plug-In . SVG Version: 6.00 Build 0)  -->
<svg version="1.1" id="Capa_1" xmlns="http://www.w3.org/2000/svg" xmlns:xlink="http://www.w3.org/1999/xlink" x="0px" y="0px"
	 viewBox="0 0 575 129" style="enable-background:new 0 0 575 129;" xml:space="preserve">
<style type="text/css">
	.st0{fill:#FFFFFF;}
	.st1{fill:#0596A8;}
</style>
<path id="text" class="st0" d="M437.76,42.14v53.19c0,13.54,6.56,21.1,19.68,21.1c3.51,0,6.97-0.16,10.38-0.47
	c3.41-0.31,6.3-0.78,8.68-1.4V42.14H492v82.04c-4.65,1.65-10.02,2.84-16.12,3.57c-6.1,0.83-12.24,1.24-18.44,1.24
	c-11.57,0-20.35-3.68-26.34-9.47c-5.99-5.79-8.99-14.58-8.99-26.36V42.14L437.76,42.14 M197.7,42.14v53.19
	c0,13.54,6.56,21.1,19.68,21.1c3.51,0,6.97-0.16,10.38-0.47c3.41-0.31,6.3-0.78,8.68-1.4V42.14h15.5v82.04
	c-4.65,1.65-10.02,2.84-16.12,3.57c-6.1,0.83-12.24,1.24-18.44,1.24c-11.57,0-20.35-3.68-26.34-9.47
	c-5.99-5.79-8.99-14.58-8.99-26.36V42.14H197.7 M374.22,14.7l-13.97,2.53l-0.03,84.58c0,16.23,8.78,26.87,28.1,26.87
	c4.75,0,13.97-1.29,19.44-2.22l-1.84-10.95c-0.11,0.43-12.33,1.67-18.85,1.31c-6.52-0.36-12.4-5.67-12.97-11.14l0.03-51.14h32.2
	V42.13h-32.2L374.22,14.7L374.22,14.7z M106.02,0L90.36,2.53v121.65c9.19,3.2,18.96,4.82,29.29,4.82c1.77,0,3.48-0.06,5.13-0.19
	v-0.03c30.55,0.15,46.35-24.07,42.27-52.18c-3.21-19.82-19.67-36.57-38.92-36.57c-7.64,0-13.74,2.07-18.29,3.72
	c-1.39,0.52-2.64,1.06-3.81,1.63L106.02,0L106.02,0L106.02,0L106.02,0z M127.96,52.61c17.19,0.85,24.07,15.97,24.6,30.84
	c0.73,20.33-13.46,34.67-32.61,32.97c-4.42-0.39-9.09-0.55-13.94-1.69V58.77c2.05-1.74,4.35-3.14,6.91-4.16
	C116.55,53.27,121.57,52.3,127.96,52.61z M288.66,126.81h-15.65V45.56c4.75-1.65,10.02-2.84,15.81-3.57
	c5.89-0.83,11.93-1.24,18.13-1.24c23.14,0,34.71,11.53,34.71,34.58v51.48h-15.5V73.16c0-13.23-6.41-19.85-19.21-19.85
	c-3.41,0-6.71,0.16-9.92,0.47c-3.2,0.31-5.99,0.72-8.37,1.24V126.81 M15.65,42.14v53.19c0,13.54,6.56,21.1,19.68,21.1
	c3.51,0,6.97-0.16,10.38-0.47c3.41-0.31,6.3-0.78,8.68-1.4V42.14h15.5v82.04c-4.65,1.65-10.02,2.84-16.12,3.57
	c-6.1,0.83-12.24,1.24-18.44,1.24c-11.57,0-20.35-3.68-26.34-9.47C3,113.73,0,104.94,0,93.16V42.14L15.65,42.14"/>
<path id="roundel" class="st1" d="M575,41c0,18.22-14.77,33-33,33c-18.23,0-33-14.77-33-33c0-18.23,14.77-33,33-33
	C560.23,8,575,22.77,575,41"/>
<path id="circle-of-friends" class="st0" d="M551.02,25.38c2.11,1.22,4.8,0.5,6.02-1.61c1.22-2.11,0.5-4.8-1.61-6.02
	c-2.11-1.22-4.8-0.49-6.02,1.61C548.19,21.47,548.91,24.16,551.02,25.38z M542,53.87c-1.94,0-3.77-0.43-5.42-1.2l-3.06,5.49
	c2.56,1.27,5.44,1.98,8.48,1.98c1.77,0,3.49-0.25,5.11-0.7c0.29-1.77,1.34-3.4,3.01-4.37c1.67-0.97,3.61-1.06,5.28-0.43
	c3.26-3.2,5.38-7.56,5.69-12.42l-6.28-0.09C554.24,48.72,548.72,53.87,542,53.87z M542,28.13c6.72,0,12.24,5.16,12.82,11.73
	l6.28-0.09c-0.31-4.85-2.43-9.21-5.69-12.41c-1.67,0.63-3.61,0.54-5.28-0.43c-1.67-0.97-2.73-2.6-3.01-4.37
	c-1.63-0.45-3.34-0.7-5.11-0.7c-3.05,0-5.93,0.72-8.48,1.98l3.06,5.49C538.23,28.56,540.06,28.13,542,28.13z M529.13,41
	c0-4.35,2.16-8.2,5.47-10.53l-3.22-5.4c-3.86,2.58-6.72,6.51-7.92,11.13c1.39,1.13,2.28,2.86,2.28,4.8c0,1.94-0.89,3.66-2.28,4.8
	c1.19,4.61,4.06,8.55,7.92,11.13l3.22-5.4C531.29,49.2,529.13,45.36,529.13,41z M551.02,56.62c-2.11,1.22-2.83,3.91-1.61,6.02
	c1.22,2.11,3.91,2.83,6.02,1.61c2.11-1.22,2.83-3.91,1.61-6.02C555.82,56.12,553.12,55.4,551.02,56.62z M519.56,36.6
	c-2.43,0-4.41,1.97-4.41,4.41c0,2.43,1.97,4.41,4.41,4.41c2.43,0,4.41-1.97,4.41-4.41C523.97,38.57,521.99,36.6,519.56,36.6"/>
</svg>
