<?xml version="1.0" encoding="utf-8"?>
<!-- Generator: Adobe Illustrator 26.0.0, SVG Export Plug-In . SVG Version: 6.00 Build 0)  -->
<svg version="1.1" id="Capa_1" xmlns="http://www.w3.org/2000/svg" xmlns:xlink="http://www.w3.org/1999/xlink" x="0px" y="0px"
	 viewBox="0 0 575 129" style="enable-background:new 0 0 575 129;" xml:space="preserve">
<style type="text/css">
	.st0{fill:#FFFFFF;}
	.st1{fill:#EE7428;}
</style>
<path id="text" class="st0" d="M437.76,42.14v53.19c0,13.54,6.56,21.1,19.68,21.1c3.51,0,6.97-0.16,10.38-0.47
	c3.41-0.31,6.3-0.78,8.68-1.4V42.14H492v82.04c-4.65,1.65-10.02,2.84-16.12,3.57c-6.1,0.83-12.24,1.24-18.44,1.24
	c-11.57,0-20.35-3.68-26.34-9.47c-5.99-5.79-8.99-14.58-8.99-26.36V42.14L437.76,42.14 M197.7,42.14v53.19
	c0,13.54,6.56,21.1,19.68,21.1c3.51,0,6.97-0.16,10.38-0.47c3.41-0.31,6.3-0.78,8.68-1.4V42.14h15.5v82.04
	c-4.65,1.65-10.02,2.84-16.12,3.57c-6.1,0.83-12.24,1.24-18.44,1.24c-11.57,0-20.35-3.68-26.34-9.47
	c-5.99-5.79-8.99-14.58-8.99-26.36V42.14H197.7 M374.22,14.7l-13.97,2.53l-0.03,84.58c0,16.23,8.78,26.87,28.1,26.87
	c4.75,0,13.97-1.29,19.44-2.22l-1.84-10.95c-0.11,0.43-12.33,1.67-18.85,1.31c-6.52-0.36-12.4-5.67-12.97-11.14l0.03-51.14h32.2
	V42.13h-32.2L374.22,14.7L374.22,14.7z M106.02,0L90.36,2.53v121.65c9.19,3.2,18.96,4.82,29.29,4.82c1.77,0,3.48-0.06,5.13-0.19
	v-0.03c30.55,0.15,46.35-24.07,42.27-52.18c-3.21-19.82-19.67-36.57-38.92-36.57c-7.64,0-13.74,2.07-18.29,3.72
	c-1.39,0.52-2.64,1.06-3.81,1.63L106.02,0L106.02,0L106.02,0L106.02,0z M127.96,52.61c17.19,0.85,24.07,15.97,24.6,30.84
	c0.73,20.33-13.46,34.67-32.61,32.97c-4.42-0.39-9.09-0.55-13.94-1.69V58.77c2.05-1.74,4.35-3.14,6.91-4.16
	C116.55,53.27,121.57,52.3,127.96,52.61z M288.66,126.81h-15.65V45.56c4.75-1.65,10.02-2.84,15.81-3.57
	c5.89-0.83,11.93-1.24,18.13-1.24c23.14,0,34.71,11.53,34.71,34.58v51.48h-15.5V73.16c0-13.23-6.41-19.85-19.21-19.85
	c-3.41,0-6.71,0.16-9.92,0.47c-3.2,0.31-5.99,0.72-8.37,1.24V126.81 M15.65,42.14v53.19c0,13.54,6.56,21.1,19.68,21.1
	c3.51,0,6.97-0.16,10.38-0.47c3.41-0.31,6.3-0.78,8.68-1.4V42.14h15.5v82.04c-4.65,1.65-10.02,2.84-16.12,3.57
	c-6.1,0.83-12.24,1.24-18.44,1.24c-11.57,0-20.35-3.68-26.34-9.47C3,113.73,0,104.94,0,93.16V42.14L15.65,42.14"/>
<g id="logo" transform="matrix(0.73333333,0,0,0.73333333,517.83324,9.8337209)">
	<path id="roundel" class="st1" d="M77.95,42.5c0,24.85-20.15,45-45,45c-24.85,0-45-20.15-45-45c0-24.85,20.15-45,45-45
		C57.81-2.5,77.95,17.65,77.95,42.5"/>
	<path id="circle-of-friends" class="st0" d="M45.25,21.2c2.87,1.66,6.55,0.68,8.2-2.2c1.66-2.87,0.68-6.55-2.2-8.21
		c-2.87-1.66-6.55-0.67-8.21,2.2C41.39,15.87,42.38,19.54,45.25,21.2z M32.95,60.05c-2.64,0-5.15-0.59-7.39-1.63l-4.17,7.48
		c3.49,1.73,7.41,2.7,11.57,2.7c2.42,0,4.75-0.33,6.97-0.95c0.39-2.41,1.83-4.64,4.11-5.96c2.28-1.32,4.92-1.45,7.2-0.58
		c4.44-4.37,7.33-10.31,7.75-16.93l-8.56-0.12C49.64,53.02,42.12,60.05,32.95,60.05z M32.95,24.95c9.17,0,16.69,7.03,17.48,15.99
		l8.56-0.12c-0.42-6.62-3.31-12.56-7.76-16.93c-2.28,0.86-4.92,0.73-7.2-0.58c-2.28-1.32-3.72-3.54-4.11-5.96
		c-2.22-0.61-4.56-0.95-6.97-0.95c-4.15,0-8.08,0.98-11.57,2.7l4.17,7.48C27.81,25.54,30.31,24.95,32.95,24.95z M15.4,42.5
		c0-5.94,2.95-11.18,7.46-14.36l-4.39-7.36c-5.26,3.51-9.17,8.88-10.79,15.17c1.9,1.55,3.11,3.9,3.11,6.54c0,2.64-1.21,5-3.11,6.54
		c1.62,6.29,5.54,11.66,10.79,15.17l4.39-7.36C18.36,53.68,15.4,48.44,15.4,42.5z M45.25,63.8c-2.87,1.66-3.86,5.33-2.2,8.2
		c1.66,2.87,5.33,3.86,8.21,2.2c2.87-1.66,3.86-5.33,2.2-8.21C51.8,63.12,48.12,62.14,45.25,63.8z M2.35,36.49
		c-3.32,0-6.01,2.69-6.01,6.01c0,3.32,2.69,6.01,6.01,6.01c3.32,0,6.01-2.69,6.01-6.01C8.36,39.18,5.67,36.49,2.35,36.49"/>
</g>
</svg>
